<svg width="14" height="20" viewBox="0 0 14 20" fill="none" xmlns="http://www.w3.org/2000/svg">
<path d="M6.38672 15.5C6.51563 15.6992 6.74219 15.832 7 15.832C7.25781 15.832 7.48438 15.6992 7.61719 15.5L11.9219 8.85156C12.5 7.95703 12.8359 6.97266 12.8359 5.83203C12.832 2.53516 10.2422 0 7 0C3.75781 0 1.16797 2.53516 1.16797 5.83203C1.16797 6.97266 1.50391 7.95703 2.08203 8.85156L6.38672 15.5ZM7 2.5C8.83984 2.5 10.332 3.99219 10.332 5.83203C10.332 7.67188 8.83984 9.16406 7 9.16406C5.16016 9.16406 3.66797 7.67188 3.66797 5.83203C3.66797 3.99219 5.16016 2.5 7 2.5ZM11.2734 12.6367L7 18.332L2.72656 12.6367C1.26563 13.4023 0.332031 14.5469 0.332031 15.832C0.332031 18.1328 3.31641 20 7 20C10.6836 20 13.668 18.1328 13.668 15.832C13.668 14.5469 12.7344 13.4023 11.2734 12.6367Z" fill="#FFBE27"/>
</svg>
