<svg width="62" height="63" viewBox="0 0 62 63" fill="none" xmlns="http://www.w3.org/2000/svg">
<path d="M31.459 0.0125636C52.7732 0.0491174 51.7277 -0.00572611 54.6992 1.42174C58.3496 3.16041 60.7527 6.30807 61.6699 10.5536C61.9818 11.9994 62 13.4091 62 31.6903V51.2714L61.5957 52.6991C59.9814 58.354 56.4049 61.5563 50.5352 62.5995C48.9578 62.8738 46.9949 62.9113 30.2666 62.8563C20.0865 62.8198 11.4652 62.7281 11.1162 62.6366C5.48479 61.3372 1.92686 57.9879 0.404297 52.5526L0 51.0887V23.9198C0.00603675 9.18541 0.110545 9.85804 1.39453 7.16784C3.17131 3.42733 6.30797 1.09467 10.5879 0.286978L11.0059 0.213735H11.0068C12.1635 0.0123028 16.5851 -0.0239856 31.459 0.0125636Z" fill="black"/>
<rect width="47" height="49" transform="translate(6.99896 5.99854)" fill="black"/>
<path d="M40.2944 44.9985H36.7717V19.0326H30.5785C29.0065 19.0326 27.7423 19.2741 26.7859 19.7571C25.8295 20.2305 25.1334 20.9029 24.6978 21.7741C24.2622 22.6453 24.0444 23.6633 24.0444 24.8281C24.0444 25.9929 24.2575 26.9966 24.6836 27.8394C25.1192 28.6728 25.8105 29.3167 26.7575 29.7713C27.7139 30.2258 28.9687 30.4531 30.5217 30.4531H38.3626V33.6349H30.4081C28.1543 33.6349 26.3029 33.2608 24.8541 32.5127C23.4052 31.7552 22.3304 30.7135 21.6296 29.3877C20.9289 28.062 20.5785 26.5421 20.5785 24.8281C20.5785 23.1141 20.9289 21.5847 21.6296 20.24C22.3304 18.8953 23.4099 17.8394 24.8683 17.0724C26.3266 16.2959 28.1921 15.9076 30.4649 15.9076H40.2944V44.9985ZM26.6012 31.9304H30.5785L23.5331 44.9985H19.4421L26.6012 31.9304Z" fill="white"/>
</svg>
