<svg width="18" height="18" viewBox="0 0 18 18" fill="none" xmlns="http://www.w3.org/2000/svg">
<path d="M16.5938 8.15625H13.2188C12.7527 8.15625 12.375 8.53425 12.375 9C12.375 9.46575 12.7527 9.84375 13.2188 9.84375H16.5938C17.0598 9.84375 17.4375 9.46575 17.4375 9C17.4375 8.53425 17.0598 8.15625 16.5938 8.15625Z" fill="#FFBE27"/>
<path d="M16.119 12.5354L12.9479 11.3811C12.5095 11.2219 12.0257 11.4475 11.8663 11.8854C11.7071 12.323 11.9324 12.8071 12.3705 12.9668L15.5419 14.1213C15.9801 14.2802 16.4639 14.0544 16.6233 13.6171C16.7828 13.1789 16.5572 12.6948 16.119 12.5354Z" fill="#FFBE27"/>
<path d="M12.9476 6.61785L16.119 5.4636C16.5569 5.30441 16.7824 4.81982 16.6232 4.38275C16.464 3.94457 15.9797 3.71844 15.5415 3.87763L12.3705 5.03216C11.932 5.19135 11.7067 5.67594 11.8659 6.11385C12.0254 6.55147 12.5097 6.7776 12.9476 6.61785Z" fill="#FFBE27"/>
<path d="M6.75 0H6.1875V6.1875H6.75V0Z" fill="#FFBE27"/>
<path d="M6.75 11.8125H6.1875V18H6.75V11.8125Z" fill="#FFBE27"/>
<path d="M8.4375 11.8125H7.3125V18H8.4375C9.05934 18 9.5625 17.4968 9.5625 16.875V12.9375C9.5625 12.3157 9.05934 11.8125 8.4375 11.8125Z" fill="#FFBE27"/>
<path d="M8.4375 0H7.3125V6.1875H8.4375C9.05934 6.1875 9.5625 5.68434 9.5625 5.0625V1.125C9.5625 0.503156 9.05934 0 8.4375 0Z" fill="#FFBE27"/>
<path d="M3.50803 0.0869062C3.36966 0.144 3.24422 0.226406 3.13987 0.331875C3.02794 0.443812 0.5625 3.375 0.5625 9C0.5625 14.625 2.90138 17.3498 3.0015 17.4991C3.03328 17.5475 3.07519 17.586 3.11259 17.6276C3.13003 17.6462 3.14325 17.6662 3.16209 17.6836C3.25434 17.7725 3.35869 17.8417 3.47203 17.8923C3.49622 17.9044 3.52153 17.912 3.54684 17.921C3.67172 17.9671 3.8025 18 3.93525 18C3.93637 18 3.9375 18 3.9375 18H5.625V0H3.9375C3.79125 0 3.64528 0.0295312 3.50803 0.0869062Z" fill="#FFBE27"/>
</svg>
